<?xml version="1.0" encoding="UTF-8"?> <svg xmlns="http://www.w3.org/2000/svg" xmlns:xlink="http://www.w3.org/1999/xlink" version="1.1" id="Capa_1" x="0px" y="0px" viewBox="0 0 499 225.3" style="enable-background:new 0 0 499 225.3;" xml:space="preserve"> <g> <path d="M173.7,133l-0.6,1.7c-8.9,26.2-31.5,42.4-58.9,42.4c-16.4,0-31.9-6.8-43.6-19c-11.8-12.4-18.3-28.4-18.3-45.3 c0-17.4,6.3-33.3,18.3-45.8c11.7-12.3,27.2-19,43.6-19c27.5,0,48.4,14.6,57.4,40.1l0.6,1.6h31.3l-0.8-3c-5.3-21-16.4-38.6-32-51 s-35.2-18.9-56.4-18.9C89.9,16.8,66,27.1,48.7,45l0,0c-17.6,18.4-27.2,42.5-27.2,67.7c0,24.8,9.6,48.8,27.1,67.4 c17.3,18.2,40.7,28.2,65.6,28.2c43.5,0,78.7-28.4,89.7-72.3l0.8-3H173.7z"></path> <polygon points="262.7,179.8 262.7,129.6 346.3,129.6 346.3,100.6 262.7,100.6 262.7,50.7 348.2,50.7 348.2,22 233.7,22 233.7,208.5 348.5,208.5 348.5,179.8 "></polygon> <rect id="XMLID_432_" x="381.9" y="21.4" width="28.9" height="187.1"></rect> <g id="XMLID_429_"> <path id="XMLID_430_" d="M477.5,191.1c0.3,9.7-6.8,17.4-18,17.4c-10,0-17.1-7.7-17.1-17.4c0-10,7.4-17.7,17.7-17.7 C470.8,173.4,477.5,181.2,477.5,191.1z"></path> </g> </g> </svg> 